<?xml version="1.0" encoding="UTF-8"?>
<svg id="Layer_1" data-name="Layer 1" xmlns="http://www.w3.org/2000/svg" xmlns:xlink="http://www.w3.org/1999/xlink" viewBox="0 0 178 158">
  <defs>
    <style>
      .cls-1 {
        fill: #33383b;
      }

      .cls-2 {
        fill: #f6b20f;
      }

      .cls-3 {
        fill: #182f41;
      }

      .cls-4 {
        fill: #122934;
      }

      .cls-5 {
        fill: #326790;
      }

      .cls-6 {
        fill: #04fbfb;
      }

      .cls-7 {
        fill: #06192e;
      }

      .cls-8 {
        fill: #09eceb;
      }

      .cls-9 {
        fill: #1e6fa8;
      }

      .cls-10 {
        fill: #67ece9;
      }

      .cls-11 {
        fill: #e3eae7;
      }

      .cls-12 {
        fill: #0ce1e0;
      }

      .cls-13 {
        fill: #dfebf2;
      }

      .cls-14 {
        fill: #4a7b9c;
      }

      .cls-15 {
        fill: #13c5c3;
      }

      .cls-16 {
        fill: #39cfb8;
      }

      .cls-17 {
        fill: #5b90b3;
      }

      .cls-18 {
        fill: #f5a120;
      }

      .cls-19 {
        fill: #f3f8f9;
      }

      .cls-20 {
        fill: #07131a;
      }

      .cls-21 {
        fill: #185d54;
      }

      .cls-22 {
        fill: #0b1c25;
      }

      .cls-23 {
        fill: #253d51;
      }

      .cls-24 {
        fill: #0bf3f2;
      }

      .cls-25 {
        fill: #c1c8cc;
      }

      .cls-26 {
        fill: #5387a8;
      }

      .cls-27 {
        fill: #f3f8fa;
      }

      .cls-28 {
        fill: #e1e6e8;
      }

      .cls-29 {
        fill: #b0cbdc;
      }

      .cls-30 {
        fill: #1b2f3d;
      }

      .cls-31 {
        fill: #aad796;
      }

      .cls-32 {
        fill: #d0cd94;
      }

      .cls-33 {
        fill: #0c1d2a;
      }

      .cls-34 {
        fill: #406a8b;
      }

      .cls-35 {
        fill: #14242e;
      }

      .cls-36 {
        fill: #02fdfb;
      }

      .cls-37 {
        fill: #c1d070;
      }

      .cls-38 {
        fill: #debc30;
      }

      .cls-39 {
        fill: #03172a;
      }

      .cls-40 {
        fill: #64696d;
      }

      .cls-41 {
        fill: #80d4e3;
      }

      .cls-42 {
        fill: #4c5358;
      }

      .cls-43 {
        clip-path: url(#clippath);
      }

      .cls-44 {
        fill: #f64b1d;
      }

      .cls-45 {
        fill: #1a1e22;
      }

      .cls-46 {
        fill: none;
      }

      .cls-47 {
        fill: #f0f6f9;
      }

      .cls-48 {
        fill: #09161e;
      }

      .cls-49 {
        fill: #08f2f2;
      }

      .cls-50 {
        fill: #f4f9fa;
      }

      .cls-51 {
        fill: #f59828;
      }

      .cls-52 {
        fill: #303842;
      }

      .cls-53 {
        fill: #f1f7f9;
      }

      .cls-54 {
        fill: #10cbc9;
      }

      .cls-55 {
        fill: #06f6f5;
      }

      .cls-56 {
        fill: #3b4349;
      }

      .cls-57 {
        fill: #09161c;
      }

      .cls-58 {
        fill: #2f4557;
      }

      .cls-59 {
        fill: #4aacd9;
      }

      .cls-60 {
        fill: #15aeab;
      }

      .cls-61 {
        fill: #cee6f1;
      }

      .cls-62 {
        fill: #393e44;
      }

      .cls-63 {
        fill: #e9efe9;
      }

      .cls-64 {
        fill: #04f8f7;
      }
    </style>
    <clipPath id="clippath">
      <rect class="cls-46" width="178" height="158"/>
    </clipPath>
  </defs>
  <g class="cls-43">
    <g>
      <path class="cls-36" d="M84.95,50.14c9.25-2.86,18.76-4.58,28.4-4.05,7.39,.4,14.96,1.24,22.01,3.35,8.55,2.55,15.79,7.64,19.76,16.25,.47,1.03,1.28,1.9,1.93,2.84,2.22,8.32,1.55,16.36-2.33,24.08-.89,1.76-1.69,3.63-3.64,4.54-1.86,.25-1.77-1.17-1.7-2.25,.15-2.18-.57-3.86-2.57-5.28-7.17,.18-5.79,6.33-6.85,11.15-5.97-1.82-4.28-9.77-9.83-11.17-4.39,2.81-4.93,6.25-1.51,9.73,1.05,1.06,1.46,2.19,.38,3.6-1.72,.68-3.09-.5-4.6-1.04-1.27-.69-2.04-1.85-2.82-3-.69-1.04-1.39-2.08-2.36-2.9-.33-.25-.64-.53-.95-.81-.49-.43-.92-.9-1.31-1.42-.83-.66-.6-2.72-2.53-1.87-1.2,.95-1.81,2.37-2.83,3.45-1.03,.99-2.3,1.79-2.6,3.35-.33,1.1-.83,2.1-1.69,2.88-.8,.55-1.6,1.06-2.58,.35,.16-4.18-3.48-7.16-3.55-11.27,.23-2.55,2.54-2.69,4.17-3.62,1.72-.82,3.63-.17,5.39-.7,8.8-6.66,13.95-9.31,22.53-.97,2.16,.23,3.78-.68,4.99-2.61-.36-2.55-2.74-4.6-1.99-7.48,.61-2.32,2.25-4.66-.56-7.65-.61-.56-2.57-.28-4.13-1.96-2.27-2.74-.93-7.5-3.96-10.48-1.57-1.01-3.15-.96-4.8-.31-2.13,1.75-2.81,4.46-4.35,6.6-1.41,1.97-2.05,4.61-4.95,5.68-2.52-1.05-2.61-3.9-3.91-5.87-1.26-1.92-2.25-4.15-4.91-4.57-10.2,5.94-12.21,1.58-19.75-6.57Z"/>
      <path class="cls-6" d="M25.96,130.5c-.49-.49-.98-.98-1.46-1.47-1.77-1.27-2.74-3.08-3.45-5.07l.02,.04c-.65-.63-.58-1.54-.89-2.31-1.06-4.05-2.12-8.09-3.18-12.14,2.15-.15,3.26,1.89,5.1,2.4,2.73,1.12,2.99,3.76,3.79,6.09,.69,2.02,1.05,4.21,2.53,5.79,1.45,1,2.9,.87,4.4,.41,1.31-1.21,1.8-2.61,1.47-4.45-1.43-8.01,0-9.78,9.01-10.86,2.55,5.44,2.38,13.11,10.49,15.13,5.94,.72,6.58-5.25,9.88-8.92,4.99,2.97,8.47,8.37,15.08,8.61,6.19,.22,11.71-2.06,16.91-3.38,2.53,.29,3.64,2.02,5.3,2.69,2.66,.02,4.96-2.33,7.76-1.06,.91,.3,1.82,.65,2.8,.67,1.25,.07,2.51,.03,3.77,.06,1.37,.05,2.72,.15,3.82,1.1,.26,.52,.29,1.06,.1,1.62-2.24,3.37-5.83,5.03-9.27,6.49-19.45,8.3-39.62,12.34-60.84,9.35-3.97-.56-7.78-1.8-11.55-3.12-4.12-1.04-7.49-3.35-10.52-6.21l.04,.05c-.51-.42-.9-.9-1.11-1.51Z"/>
      <path class="cls-48" d="M84.95,50.14c2.97,2.32,5.93,4.64,9.6,7.5,.91,.16,2.82,.48,4.72,.8,.23,.37,.45,.74,.68,1.11,.49-.86,.81-1.91,1.51-2.55,2.71-2.5,5.06-2.54,7.15,.41,1.96,2.78,3.25,6.03,5.07,9.54,2.74-4.69,5.5-9.4,8.05-13.76,6.55-.69,8.32,.58,9.3,6.04,.38,2.1,.84,4.19,1.3,6.44,1.44,.22,2.71,.41,4.34,.65,.77,1.23,1.63,2.59,2.61,4.16-.82,2.21-1.62,4.34-2.42,6.49,.96,1.68,1.94,3.39,2.89,5.04-.7,4.16-3.59,4.92-7.43,5.25-1.85-1.99-3.86-4.17-6.05-6.54-3.37,.84-6.72,1.67-9.22,2.29-2.7,2.26-4.71,3.94-6.34,5.3-2.03-.17-3.38-.28-4.74-.4-4.88,2.32-9.25,.12-13.67-1.57-.63-.15-.6-1-1.13-1.15-.1,1.18-.7,1.14-1.52,.65-.35-4.02,.14-8.34-3.83-10.4-.69-2.4,.64-3.27,1.69-4.29,.62-.57,1.19-1.18,1.63-1.92,.2-.38,.43-.74,.66-1.1,.35-.57,.76-1.08,1.37-1.39,.47,.03,.87,.21,1.21,.54,1.57,3.61,.55,7.76,2.75,11.34,2.84,4.61,4.42,5.76,9.52,4.24,2.02-.6,3.88,.55,5.73-.27,4.65-4.84,11.14-4.57,16.28-6.3,3.7,.95,4.33,4.82,7.54,5.75,.28-2.74-2.53-3.71-2.6-5.64-.21-2.16,1.67-3.07,2.08-4.74-.66-1.81-2.83-.47-4.26-2.48-1.54-3.21-2.14-7.66-3.86-13.08-6.26,7.75-10.33,15.78-15.21,23.27-.67,.48-1.34,1-2.85,.23-.7-6.11,3.97-13.36-2.46-19.17,1.39,6.59,4.49,13.41-2.41,19.29-6.25-4.07-6.31-10.36-7.08-16.36-1.03-1.38-2.57,.41-4.03-.92-1.27-2.99-3.56-5.76-6.81-7.67-1.78-2-5.37-1.79-6.14-5.01,.27-.82,.68-1.39,1.66-.9,1.58,.43,3.15,.85,4.72,1.28Z"/>
      <path class="cls-2" d="M36.94,136.99c9,2.32,18.03,4.44,27.45,3.88,15.67-.93,30.97-3.48,45.26-10.37,3.26-1.57,6.27-3.68,9.39-5.55,1.41-1.63,3.46-2.45,4.98-3.95,.34-.29,.72-.53,1.11-.74,.82-.42,1.66-.76,2.61-.72,1.99,.83,4.6,.48,5.75,2.95-2.27,.81-4.76,1.27-6.77,2.5-15.12,9.26-31.12,16.28-48.82,18.46-11.54,1.42-23.19,1.59-34.56-1.53-3.27-.9-6.31-2.62-9.46-3.97,.43-2.2,1.79-1.43,3.06-.96Z"/>
      <path class="cls-35" d="M21.05,112.79c-1.36-1.08-2.71-2.16-4.07-3.25v-.23c-1.28-2.92,1.16-4.77,2.1-7.04-.66-1.16-1.29-2.27-2.21-3.18-.54-1.02-1.07-2.05-1.55-2.97,1.86-5.86,2.85-6.82,9.15-8.88-.33-1.39-.66-2.79-.98-4.19,.29,.12,.58,.23,.88,.35,5.05-8.16,10.08-16.33,15.15-24.48,.43-.69,1-1.29,1.51-1.93,1.39-.24,1.61,.78,1.88,1.75-.62,5.2-4.07,9-6.65,13.2-2.5,4.06-5.52,7.8-8.09,12.09,2.35,1.34,3.18-.67,4.47-1.34,3.34-1.74,6.57-4.2,10.57-1.6-1.71,3.64-6.22,2.29-8.88,4.89-.33,.1,.32,.07,.42-.08,1.04-1.43,2.23-.84,3.37-.02-.03,2.51-2.15,2.17-3.61,2.44-3.61,.67-7.05,1.84-10.44,3.2-1.66,.67-3.54,1.16-3.8,3.44,1.15,1.98,3.16,.09,5.23,1.78,1.14,1.79,1.37,4.66,1.16,7.16-.92,2.34-3.56,1.92-4.38,4.27,3.88,2.37,8.02,4.96,5.06,10.68q-2.04-1.12-2.82-5.06c-.93-1.03-2.02-1.6-3.47-1Z"/>
      <path class="cls-4" d="M128.4,100.22c-1.14-.57-2.29-1.14-3.37-1.67-.45-4.45,.42-7.93,3.98-10.44,7.45,.22,5.68,8.63,10.21,11.47-.06-8.64,2.12-11.34,8.86-11.13,3.2,2.11,2.99,5.17,2.27,8.38,1.97,2.48-.16,5.02,.11,7.52-.13,.85-.26,1.7-.4,2.55,.99,1.58-.19,3.53,.84,5.1,.23,2.09,.78,4.22,.57,6.27-.15,1.37-1.39,2.62-2.14,3.93-1.76,.34-3.52,.72-5.22-.23l-.06-.03c.03-2.57,2.54-1.51,3.64-2.52,.28-.29,.53-.6,.73-.96-.48-3.75-.42-7.53-1.22-11.24-.15-.48-.26-.96-.34-1.45-.34-3.07-.15-6.14-.22-9.2-.16-1.09,.34-2.35-1.5-3.63-4.52,5.64,1.77,12.76-2.67,18.84-5.06-5.35-7.86-11.9-12.28-17.59-1.56,1.8-.35,4.36-1.79,6.03Z"/>
      <path class="cls-30" d="M80.24,48.86c-.43,.42-.86,.85-1.28,1.27-4.55,1.61-9.52,2.05-13.66,4.82-5.98,2.31-9.56,6.19-9.29,13.07,.14,3.53-2.01,5-5.53,4.49-2.34-2.15-2.39-5.03-2.8-7.79-.04-1.9-.12-3.8-.27-5.7-.09-1.08,.06-2.32,1.73-2.16h0c.08,.52,.52,.77,.79,1.15,.47,2.13,.93,4.26,1.4,6.38,2.88-10.02,11.2-13.21,19.37-16.26,2.98-1.13,6.49-1.28,9.54,.73Z"/>
      <path class="cls-38" d="M150.47,104.33c-.04-2.51-.07-5.01-.11-7.52,5.28-6.51,7.06-14.12,6.95-22.31-.03-1.99-.17-3.98-.26-5.98,4.95,8.89,2.8,17.56-1.02,26.05-1.52,3.41-3.68,6.52-5.56,9.76Z"/>
      <path class="cls-42" d="M28.01,62c1.32,1.08,2.64,2.17,4.54,3.72-2.24,1.34-3.99,2.39-5.97,3.57,.17,.86,.39,1.94,.66,3.31-.9,.74-1.88,1.54-3.1,2.55-3.25-2.21-6.35-4.31-9.24-6.28,.9-7.73,5.73-10.76,12.23-12.01-.6-2.25-1.06-3.93-1.65-6.15,1.46-1.01,2.9-2.01,4.34-3,.4,.25,.67,.6,.78,1.07,.07,.72-.12,1.37-.46,1.99-1.59,2.12,.27,4.6-.74,6.91-2.49,4.04-9.57,2.61-10.69,8.58,.19,1.9,1.77,2.69,3.63,4.37-1.06-4.25,4.37-3.16,4.21-6.6-.2-.69-.16-1.35,.21-1.97,.4-.28,.82-.31,1.25-.06Z"/>
      <path class="cls-52" d="M133.49,122.49c-2.03-.78-4.07-1.56-6.1-2.34-1-.24-1.7,.3-2.38,.9l.04-.03c-1.93,1.03-3.49,2.88-5.98,2.69-1.37,.09-2.73,.17-4.1,.26-.74-1.14-3.31,.49-3.12-2.06,5.97-1.32,11.15-4.39,16.37-7.38,.41,.14,.74,.39,1,.75,.29,.87,.22,1.95,1.35,2.33,2.53-.25,1.61-2.03,1.48-3.37-.27-2.79-.69-5.58,.99-8.52,3.68,1.66,5.6,4.09,5.32,8.03-.48,1.16-1.96-.32-2.44,.88,.39,2.35,2.44,1.01,3.58,1.65,3.05,2.03,3.26,2.61,1.36,3.81-.5-.37-1.03-.71-1.49-1.11-.35-.3-.62-.69-.81-.9-1.75,1.51-3.41,2.96-5.07,4.41Z"/>
      <path class="cls-40" d="M29.82,47.72c.66-.88,1.32-1.76,2.02-2.69,5.45,1.01,7.87,4.51,9.11,9.23-1.74,2.45-3.36,4.82-6.8,2.86-.22-.25-.31-.51-.26-.79,.04-.28,.1-.42,.16-.42,.72-.91,2.03-.95,2.78-1.82,.5-1.03-.14-1.85-.5-2.72-.89-1.66-1.98-2.89-4.11-2.1-1.03,.28-1.61-.34-2.13-1.08-.11-.14-.2-.3-.27-.47Z"/>
      <path class="cls-62" d="M34.14,55.87c0,.42,.01,.84,.01,1.25h.01c-.32,.14-.45,.32-.39,.53,.07,.23,.15,.34,.24,.34,.67,.92,1.34,1.84,2.08,2.85-1.57,2.37-3.14,3.55-5.73,1.53-.55-.43-1.56-.27-2.35-.38-.4,.01-.79,.02-1.19,.03-.49,.2-.84,.05-1.04-.45,1.07-2.15,2.71-3.16,5.24-2.53-.24-1.97-2.03-3.62-1.21-5.78,1.46-.98,2.5-.16,3.53,.69,.3,.36,.53,.77,.7,1.21,.04,.25,.07,.48,.1,.71Z"/>
      <path class="cls-12" d="M16.87,99.1c1.63,.88,3.25,1.75,4.44,2.39-1.35,2.44-2.84,5.13-4.33,7.83-.04-3.41-.07-6.82-.11-10.22Z"/>
      <path class="cls-58" d="M49.12,56.85c-.08,2.76-.17,5.53-.25,8.29-3.05-.7-2.11-3.96-3.63-5.65-.93-.99-2.16,.02-3.16-.49-.35-.67-.71-1.34-1.06-2.01,3.19-3.06,4.72-3.09,8.1-.14Z"/>
      <path class="cls-23" d="M140.86,120.09q.54-1.52-1.93-3.13c-.52-.64-.52-1.31-.12-2.01,4.01,.21,6.3,3.9,9.92,4.9-.72,.39-1.43,.83-2.18,1.16-.81,.35-1.66,.6-2.49,.89-1.07-.59-2.14-1.2-3.2-1.81Z"/>
      <path class="cls-37" d="M36.94,136.99c-1.02,.32-2.04,.64-3.06,.96-2.29-2-4.58-4.01-6.87-6.01,3.31,1.68,6.62,3.37,9.93,5.05Z"/>
      <path class="cls-31" d="M21.04,123.96c1.15,1.69,2.3,3.38,3.45,5.07-2.53-.75-3.88-2.3-3.45-5.07Z"/>
      <path class="cls-23" d="M150.92,111.98c-.28-1.7-.56-3.4-.84-5.1,.27,1.7,.56,3.4,.84,5.1Z"/>
      <path class="cls-23" d="M144.11,121.95c1.74,.08,3.48,.15,5.22,.23-1.8,1.51-3.53,1.08-5.22-.23Z"/>
      <path class="cls-31" d="M20.16,121.68c.3,.77,.59,1.54,.89,2.31-.29-.77-.59-1.54-.89-2.31Z"/>
      <path class="cls-58" d="M49.91,57.99c-.26-.38-.53-.76-.79-1.14,.27,.39,.53,.76,.79,1.14Z"/>
      <path class="cls-40" d="M34.01,58c-.21-.19-.42-.37-.63-.56,.26-.11,.52-.22,.78-.32,.12,.32,.08,.61-.15,.88Z"/>
      <path class="cls-37" d="M25.96,130.5c.37,.5,.73,1,1.1,1.49-.37-.5-.74-1-1.1-1.49Z"/>
      <path class="cls-20" d="M37.97,86.09c-1.43-.11-2.87-.22-4.3-.32-.1-.28-.21-.57-.31-.85,3.21-1.33,6.43-2.66,9.64-3.99,.82-2.03,2.53-2.41,3.92-2.5,3.59,.85,3.26,5.57,6.99,5.69,.92-2.03-1.29-2.9-1.53-4.43-.22-.72-.23-1.44-.03-2.17,.18-.48,.47-.88,.87-1.21,.83-.62,1.75-1.02,2.78-1.14,5.16,1.39,9.85,4.75,15.64,3.56,1.27-.26,2.64-.1,3.89-.61,1.88-.64,3.75-1.48,6.29-.57,2.67,2.28,4.5,6.03,7.87,8.27,.62-.38,1.25-.76,2.03-1.24l.39,1.68q-.73,2.49-3.92,3.62c2.16,4.35,.36,8.59-.7,12.79,1.49,1.65,3.07,2.12,5.03,1.5,1.43-2.57-.85-4.37-1.3-6.52-.67-3.21-.19-6.12,2.88-7.73,2.79-1.46,5.73-1.88,7.75,1.5,.87,1.58,2,3.08,2.54,4.76,.56,1.75,.56,3.68,.8,5.54-.06,1.71-.67,3.05-2.46,3.57-2.21-.87-1.79-2.72-1.69-4.46,.95-2.4-.13-4.23-1.68-5.92-1.19-1.06-2.34-1.31-3.41,.15-.37,.76-.27,1.5,.08,2.24,1.62,2.23,2.98,4.52,2.17,7.45-.36,2.07-.25,4.21-.92,6.12-2.62,1.63-4.49-.38-6.59-.88-4.35-1.05-8.63-2.31-13.1-2.97-3.89-.57-7.82-1.65-10.07-5.37,1.78-5.29,7.02-7.99,13.04-6.89,1.47,1.27,.31,3.23,1.52,5.21,1.59-3.06,2.25-5.66,.15-8.96-8.23-1.26-13.92,4.32-19.78,8.09-2.47,.05-2.16-2.3-3.51-2.89-.65,.04-.93,.54-.82,.97,1.05,4.06,1.5,8.17,1.03,12.33-.36,3.16-.89,6.33-4.41,7.7-2.52-.45-3.46-2.47-4.58-4.3-2.53-5.93-1.72-12.28-2.14-18.61-2.65,2.84-.9,8.27-6.07,9.23-3.87,.72-7.66,2.3-11.56,.98-4.21-7.52-1.95-12.46,6.28-13.71,3.99-.61,7.6-2.15,11.26-3.61,.61-.25-.37-.87,0-.31,.73,1.11-6.69,.54-9.96-.79Z"/>
      <path class="cls-19" d="M148.73,119.86c-4.57,.93-6.77-2.65-9.6-5.02-.67-.05-1.07-.35-.98-1.09-1.44-2.48-2.87-4.96-4.31-7.44-.4,.15-.8,.3-1.2,.45,.47,4,.94,8,1.41,11.95-1.97,1.97-3.32,.12-4.83-.67-.84-.6-.81-1.27-.16-1.99l.02-.05c.06-2.07-.44-4.09-.49-6.14-.71-2.68-3.26-3.82-4.84-5.76-.7-1.19-.82-2.38,.04-3.55,1.58,.62,3.16,1.24,5.07,2-.17-.88-.31-1.6-.45-2.32-.97-5-.91-5.35,1.7-9.51,4.06,6.63,8.04,13.14,12.48,20.38v-17.69c1.05-.68,2.63-1.71,4.96-3.23,.14,2.57,.22,4,.3,5.42-.5,3.81-.7,7.61,.12,11.4l.02,.06c.63,4.24,.89,8.51,.8,12.79h-.06Z"/>
      <path class="cls-55" d="M101.85,91.41c-1.98-.69-3.97-1.37-5.61-1.94-5.39,4.34-5.52,6.27-1.14,12.21-.41,1.52-.88,3.23-1.35,4.97-3-.77-5.81-1.5-8.83-2.28,2-5.23,5.41-10.21,1.33-15.87,2.25-.45,5.13,1.23,5.86-2.26,.49-.63,.97-1.25,1.63-2.09,3.4,3.55,7.34,5.32,12.23,3.77-1.05,.53-2.1,1.07-3.6,1.83-.07,.21-.3,.94-.52,1.66Z"/>
      <path class="cls-18" d="M123.78,100.54c.42,1.15,.83,2.3,1.25,3.45,2.27,3.36,1.76,6.36-.64,9.08-2.02,0-2.31-1.25-2.91-2.18-.7-1.75-1.9-3.19-3.04-4.66-1.17-2.02-3.11-3.44-4.24-5.5-1.62-3.26-1.61-6.54-.15-9.84,.62-.69,1.24-1.39,2.16-2.42,.73,2,1.32,3.59,1.9,5.17,.1,.59,.46,1,.93,1.33h.01c.56,1.48,1.31,2.77,3.12,2.93,.54,.88,1.07,1.76,1.61,2.64Z"/>
      <path class="cls-51" d="M107,100.62c.3-.91,.6-1.81,.9-2.72,1.94-.59,2.52,2.29,4.45,1.75,1.26,.32,1.7,1.33,2.05,2.42-.55,3.27-3.47,5.19-4.62,8.13-.97,1.3-1.06,4.08-3.87,2.34-.72-.68-1.15-1.53-1.54-2.42-.19-.46-.32-.94-.41-1.42-.94-3.43,1.55-5.57,3.04-8.08Z"/>
      <path class="cls-44" d="M114.15,101.96c-.63-.66-1.25-1.33-1.88-1.99-2.26-1.27-2.45-3.06-1.28-5.18,1.02-1.3,2.04-2.6,3.06-3.91,.31,3.42,.61,6.85,.92,10.27,.22,.78-.07,1.02-.82,.81Z"/>
      <path class="cls-10" d="M111,94.79c.43,1.73,.85,3.45,1.28,5.18-.25,.67-.5,1.34-.94,2.52-1.37-1.83-2.4-3.21-3.43-4.58,1.02-1.04,2.05-2.08,3.09-3.12Z"/>
      <path class="cls-29" d="M107,100.62c-.64,3.12-1.29,6.25-1.93,9.37-3.3-.67-3.39-2.68-2.18-5.23,.76-1.02,1.53-2.04,2.29-3.06,.61-.36,1.22-.72,1.82-1.08Z"/>
      <path class="cls-32" d="M122.17,97.9c-1.18,.6-2.35,1.2-4.51,2.3,.58-2.2,.99-3.71,1.39-5.23,1.04,.97,2.08,1.95,3.12,2.93Z"/>
      <path class="cls-32" d="M119.04,94.97c-.31-.44-.62-.89-.93-1.33,.31,.44,.62,.88,.93,1.33Z"/>
      <path class="cls-57" d="M111.94,122.03c1.01,.65,2.02,1.29,3.03,1.94-1.35-.07-2.7-.15-4.05-.22-.63-.28-1.37-.25-1.95-.69-2.66,.39-5.33,.78-8.61,1.25-1.01-.84-2.5-2.1-3.94-3.31-13.92,6.47-24.84,5.64-32.29-5.08-2.48,4.24-3.77,9.65-10.93,9.78-6.95-2.36-9.56-8.67-10.3-16.49-2.9,1.27-5.45,2.38-8.55,3.73,.27,1.67,.39,3.41,.84,5.06,1.54,5.66-.19,7.99-6.33,8.1-3.02-1.89-3.84-5.15-4.3-8.42-.34-2.4-1.26-4.05-3.52-4.91,1.32-.24,2.63-.48,3.84-.7,.89,2.7,1.57,4.78,2.25,6.85,1.75-.33,1.83,2.42,3.74,2,.9-3.16-1.29-6.16-.36-9.91,3.37-4.18,9.76-4.31,13.63-8.99,3.59,4.81,2.07,10.17,4.48,14.32,1.08,2.05,2.28,3.97,4.78,4.88,3.51-.21,5.01-3.06,6.76-5.59,.9-1.76,1.1-3.75,1.87-5.53,1.49-3.46,3.45-3.63,6.46-.68,.35,1.48-.66,2.88-.29,4.37,4.13,6.85,9.73,8.31,21.33,5.55,.78-.19,1.58-.33,2.35-.57,.34-.14,.69-.26,1.04-.38,.49-.21,.98-.44,1.42-.74,.27-.25,.53-.49,.78-.76,.21-.33,.42-.65,.62-.99,.09-.2,.2-.37,.29-.56,.33-.56,.67-1.11,1.45-1.35,2.68,.97,1.29,5.46,4.78,5.79,.4-.12,.8-.24,1.19-.4,.19-.1,.39-.18,.58-.28,1.87-.89,3.4-.05,4.91,.94,.68,.45,1.39,.84,2.14,1.18,.36,.19,.64,.46,.86,.81Z"/>
      <path class="cls-16" d="M119.07,123.71c1.99-.9,3.98-1.79,5.98-2.69-2,1.31-4.01,2.62-6.01,3.93,.01-.41,.02-.82,.03-1.24Z"/>
      <path class="cls-52" d="M108.97,123.06c.65,.23,1.3,.46,1.95,.69-.65-.23-1.3-.46-1.95-.69Z"/>
      <path class="cls-53" d="M89.69,85.8c-2.56,.03-4.26-1.17-5.4-3.47-.78-1.58-1.88-3.01-3.04-4.83-1.79,.54-3.48,1.05-5.16,1.55-7.17,1.1-14.1,1.19-19.57-4.76-.35-.42-.63-.89-.85-1.39s-.32-1.02-.31-1.56c.32-4.32-.41-8.67,2.85-12.6,1.93-2.33,4.94-2.63,6.6-4.94,2.14-1.12,4.27-2.25,6.99-3.67h7.17c2.08,1.26,4.16,2.52,6.24,3.78,1.99,1.76,3.9,3.6,5.9,5.86-.02,2.24,2.07,4.69-.07,7.24h-.01c-.63,.51-.43,1.43-1,1.97l-.02,.04c-.6,.46-.35,1.41-1.03,1.83-.82,.99-1.65,1.98-3.02,3.64,1.36,.91,2.84,1.91,4.31,2.9,1.29,3.09,.43,5.75-.58,8.41Z"/>
      <path class="cls-50" d="M109.9,78.76c1.97-3.41,3.93-6.83,5.92-10.23,2.42-4.15,4.86-8.28,7.52-12.81,.93-.1,2.16-.24,3.62-.41,1.21,5.04,2.36,9.79,3.53,14.69,1.64-.45,3.14-.86,4.86-1.34,1.28,3.48-.89,5.01-3.34,6.7,1.63,2.27,3.21,4.47,5,6.97-1.26,.77-2.31,1.42-3.82,2.35-1.87-2.51-3.61-4.83-5.72-7.66-5.11,2.67-12.11,1.45-16.5,7-3.29-.6-3.35-.9-1.07-5.26Z"/>
      <path class="cls-13" d="M109.9,78.76c-.21,.9-.37,1.82-.65,2.71-.49,1.6,.05,2.43,1.72,2.55-.55,.5-1.11,1-1.88,1.69-.81-1.09-1.44-1.92-2.2-2.94-1.17,.92-2.17,1.7-3.01,2.36-3.1,1.13-7.26-.85-9.14-4.47-1.65-3.19-3.16-6.47-2.86-10.28,.08-1.09-.55-2.24-.85-3.36v-5.91c-1.97-2.43-3.9-4.81-5.83-7.18,4,1.3,6.03,4.32,7.35,8.31,1.18-.65,2.5-1.38,4.53-2.49,.4,7.02-.04,13.91,5.12,19.11,3.32-3.19,4.48-8.9,2.8-13.09-.68-1.69-1.54-3.36-1.86-5.12-.17-.95,.62-2.07,1.27-3.95,7.61,7.22,5.43,14.96,3.73,22.69,.84-.32,1.3-.48,1.76-.63Z"/>
      <path class="cls-54" d="M99.97,61.83c2.99,3.93,3.77,7.23,2.39,11.62-2.53-3.55-2.39-7.03-2.39-11.62Z"/>
      <path class="cls-13" d="M90.01,68.98c.33-.65,.67-1.31,1-1.96-.33,.66-.67,1.31-1,1.96Z"/>
      <path class="cls-13" d="M88.96,70.84c.34-.61,.69-1.22,1.03-1.83-.34,.62-.69,1.23-1.03,1.83Z"/>
      <path class="cls-16" d="M125.01,121.05c.48-1.14,.85-2.54,2.38-.9-.79,.3-1.59,.6-2.38,.9Z"/>
      <path class="cls-53" d="M47.82,117.06c-1.12-4.43-2.24-8.86-3.28-12.97-3.98,2.17-8.42,4.59-13.3,7.25,.43,3.55,.89,7.28,1.37,11.18-.99,.44-1.86,.82-3.02,1.34-.87-1.76-1.66-3.34-2.45-4.92-.13-2.29-.25-4.59-.37-6.74-2.54-1.11-4.72-2.06-7.27-3.17,.85-1.63,1.42-2.73,2.02-3.89,1.65-.09,3.08-.17,4.52-.25-.48-2.96-.92-5.65-1.39-8.53-1.44,.61-2.93,1.25-4.62,1.97-.76-.9-1.46-1.74-2.07-2.46,1.5-6.13,7.1-5.73,11.12-7.5,2.76-1.21,5.91-1.55,8.88-2.28,3.96-.73,7.83-.72,11.75,2.16-3.85,1.17-7.65,2.67-11.58,3.41-3.57,.67-6.65,1.76-9.07,4.72,.45,2.4,.89,4.79,1.47,7.86,4.69-.87,9.29-1.72,13.7-2.54,.54-3.48,.98-6.37,1.45-9.42,1.39-.19,2.49-.35,3.89-.54,.43,7.2-1.21,14.36,1.63,21.11-.26,.25-.54,.36-.84,.3-.69-.13-1.07-.66-1.62-1.27-.25,1.81,1.06,3.84-.92,5.18Z"/>
      <path class="cls-47" d="M64.8,53.81c-.43,.65-.71,1.61-1.31,1.89-5.85,2.65-7.91,7.34-7.5,13.46,.06,.98-.03,1.96-.05,2.95,.04,1.03,.06,2.07-.54,2.99-.78,.67-1.55,1.36-2.46,1.87h.01c-.49,.71-.66,1.4,.18,2,1.25,1.72,2.49,3.45,3.97,5.49-1.39,.83-2.44,1.46-3.94,2.36-1.86-2.49-3.59-4.81-5.72-7.66-1.21,.49-2.82,1.13-4.43,1.78-5.62-.48-9.8,2.28-13.93,6.92-1.13-1.37-2.01-2.44-2.42-2.94,5.34-8.96,10.38-17.43,15.43-25.9,1.27-1.44,2.68-2.37,4.55-1.34,.77,2.58,1.51,5.03,2.24,7.47,.45,2.25,.9,4.5,1.41,7.06,1.58-.44,2.95-.81,4.62-1.27-.12-2.08-.23-4.04-.37-6.46,1.87-4.65,4.41-9.2,10.26-10.67Z"/>
      <path class="cls-23" d="M148.77,119.84c-.27-4.26-.53-8.53-.8-12.79,.36,.98,.89,1.93,1.05,2.93,.38,2.36,.7,4.74,.78,7.12,.04,.9-.66,1.83-1.03,2.74Z"/>
      <path class="cls-23" d="M147.96,106.99c-.7-3.79-1.73-7.59-.12-11.4,.04,3.8,.08,7.6,.12,11.4Z"/>
      <path class="cls-28" d="M33.02,54.97c-.79-.57-1.57-1.13-2.36-1.7-.25,.16-.51,.31-.76,.47,1.25,2.44,2.51,4.88,3.75,7.29q-1.94,.01-3.97-1.81c-1.17,.89-2.42,1.84-3.67,2.79,.01,.9-.31,1.96,1.08,2.17,.76,.19,1.51,.39,3.58,.92-3.26,1.56-5.47,2.61-8.07,3.85,.87,1.2,1.55,2.13,2.69,3.71-4.02-.81-6.2-3.06-8.33-5.05,.53-7.86,8.21-6.87,12.3-10.48-.5-1.44-1.08-2.77-1.42-4.17-.43-1.73,.11-2.94,2.16-2.95,2.22-.34,3.55,3.36,6.13,1.33,.27-.32,.59-.56,.97-.74,.67,1.21,1.34,2.43,2.48,4.5-2.28,.33-3.86,.55-5.43,.78h-.02c-.46-.19-.78-.57-1.11-.91Z"/>
      <path class="cls-45" d="M36.95,52.1c-.06,.47-.12,.95-.21,1.6-3.26,.58-4.81-1.93-6.75-3.68,.03-.6,.06-1.21,.09-1.81,.7,.19,1.41,.37,2.11,.56,3-.91,3.62,1.58,4.76,3.33Z"/>
      <path class="cls-1" d="M27.08,64.17c-.78,.43-1.57,.87-2.35,1.3-.18-.16-.36-.32-.54-.48,.6-1,1.21-1.99,1.81-2.99,.27,.01,.55,.02,.82,.03,.09,.72,.18,1.43,.26,2.14Z"/>
      <path class="cls-17" d="M108.94,121.17l-4.89-1.11c-1.73-2.62-2.23-5.61-2.87-8.62-.59-2.76-.01-6.49-4.17-7.33,.21-.92,.43-1.84,.64-2.75-.95-1.44-1.9-2.88-2.86-4.32,.17-.34,.44-.49,.82-.45,.34,.02,.64,.14,.9,.37,.27,.19,.51,.41,.74,.64,.01-.01,.35,.34,.35,.33,.25,.2,.49,.41,.75,.6,.01-.01,.41,.24,.42,.23,.31,.1,.62,.21,.94,.27,.51,.07,1.01,.16,1.5,.31,.34,.13,.6,.35,.81,.64,.29,1.6,.58,3.2,.87,4.81,.73,1.74,1.45,3.49,2.18,5.23l-.03-.05c.51,.89-.27,2.11,.75,2.86,1.71,1.61,3.27,3.39,5.24,4.7,5.92,3.45,10.65-.86,14.63-5.83,1.11-1.39,1.48-4.04,4.3-2.59-.3,2.3-.6,4.6-.89,6.91-.35-.31-.7-.63-1.45-1.3-3.73,5.67-9.36,7.29-15.68,7.33-.26-.1-.52-.14-.8-.14-.67-.46-1.51-.37-2.2-.74Z"/>
      <path class="cls-33" d="M138.15,113.74c.33,.36,.65,.73,.98,1.09-.07,.71-.13,1.42-.2,2.13-1.12,.1-2.24,.2-3.59,.31-.4-1.79-.83-3.74-1.46-6.57,1.92,1.37,3.09,2.21,4.27,3.04Z"/>
      <path class="cls-17" d="M129.06,116.05c.05,.66,.11,1.33,.16,1.99-.05-.66-.11-1.33-.16-1.99Z"/>
      <path class="cls-25" d="M36.95,52.1c-1.58-1.11-3.17-2.23-4.75-3.34,.02-.46,.04-.92,.08-1.75,2.19,.65,4.14,1.18,4.81,3.6-.05,.49-.09,.99-.14,1.49Z"/>
      <path class="cls-40" d="M33.02,54.97c.37,.31,.74,.61,1.1,.92-.37-.31-.73-.61-1.1-.92Z"/>
      <path class="cls-27" d="M47.82,117.06c-.26-2.79-.52-5.58-.88-9.4,1.91,2.32,3.09,3.75,4.27,5.18,1.08,1.21,2.16,2.42,3.56,3.98,5.24-6.81,4.35-13.66,1-21.03,.92-.97,1.85-1.95,3.41-3.6,1.11,2.44,1.88,4.12,2.65,5.82,6.67-4.72,13.36-10.84,23.3-7.77-.27,5.23,.18,9.59-4.16,12.66-2.35-2.6-.89-4.96-.34-8.11-5.07,.98-9.72,1.72-12.91,6.57,2.87,2.66,6.39,3.49,9.84,4.35,4.49,1.12,9.02,2.08,13.53,3.11,1.41,1.67,3.89,1.96,5.21,4.11,.38,1.25,.4,2.7-.25,4.13v-.02c-.41,.24-.73,.6-1.04,.97h-.01c-.55,.55-1.5,.34-1.97,1.05h.01c-.62,.49-1.57,.3-2.07,1.03-5.24,1.44-10.32,2.64-15.93,.94-4.44-1.35-7.22-3.66-8.79-8.09,.58-.91,1.19-1.85,1.8-2.8,2.06-1.69,3.38,.23,4.72,1.14,4.31,2.96,8.97,3.86,14.94,3.01-8.37-3.03-16.78-3.11-23.64-8.14-2.26,3.72-1.68,7.58-3.36,10.73-2.05,2.63-3.32,6.29-8.59,5.63-1.17-1.48-2.74-3.46-4.3-5.45Z"/>
      <path class="cls-64" d="M61.18,80.84c6.16,1.99,12.36,1.56,18.97,.19,1.17,1.69,2.44,3.5,3.96,5.69-7.85-.27-14.52,1.83-20.53,6.56-1.4-.96-2.84-1.96-5-3.45-1.82,1.64-3.65,3.28-5.48,4.92-.34-1.28-.81-3.02-1.26-4.73,2.4-1.2,4.98-2.16,7.08-3.74,.63-.48-.04-2.69-.12-4.11-.03-1.88,1.09-1.75,2.38-1.33Z"/>
      <path class="cls-29" d="M96.06,117.07c-.11-1.3-.22-2.6-.32-3.67-1.69-1.66-3.17-3.11-4.65-4.56,1.74,.73,3.48,1.46,5.29,2.21,.23-2.51,.43-4.72,.62-6.94,1.03-.67,2.05-1.34,3.18-2.08,.84,2.92,1.57,5.46,2.56,8.9,.34,2.41,.82,5.78,1.3,9.14v-.02c-.42,.26-.77,.62-1.07,1.02-.74,.26-1.47,.53-2.69,.96-.98-2.48-1.89-4.76-2.71-6.82-.39,.49-.95,1.17-1.51,1.86Z"/>
      <path class="cls-8" d="M31.9,96.57c3.57-.84,6.56-1.54,9.95-2.34v5.08c-2.76,.61-5.45,1.21-8.51,1.89-.46-1.48-.86-2.76-1.44-4.63Z"/>
      <path class="cls-5" d="M54.88,74.71c.35-.87,.71-1.74,1.06-2.62l-.02-.06c.37,.33,.76,.64,1.06,1.03,2.43,4.05,6.1,5.73,10.71,5.75,2.8,.01,5.59,.16,8.39,.24-5.89,1.61-11.61,1.68-17.08-1.57-1.17-.69-2.63-.9-3.95-1.34-.52-.41-.57-.89-.17-1.43Z"/>
      <path class="cls-61" d="M100.96,99.72c-.64,.01-1.28,.02-1.93,.04-.39-.18-.75-.42-1.07-.71h-.02c-.27-.38-.61-.68-1.01-.92l-.07-.07c-.22-.4-.53-.71-.93-.92l-.08-.05c-.5-.69-1.6-1.12-1.01-2.29,1.48-3.09,2.23-3.2,5.2-.81-.62,2.05,3.98,3.29,.92,5.73Z"/>
      <path class="cls-24" d="M55.16,112.15c-2.86-3.64-3.23-7.52-1.88-14.86,3.12,4.6,1.93,9.39,1.88,14.86Z"/>
      <path class="cls-15" d="M72.61,100.55c1.04-.59,2.08-1.18,3.44-1.94,.66,1.41,1.18,2.51,2.19,4.65-2.45-.64-4-1.04-5.55-1.45-.04-.42-.06-.84-.08-1.26Z"/>
      <path class="cls-60" d="M61.18,80.84c-.79,.45-1.58,.9-2.37,1.35-.91-1.05-1.82-2.1-2.72-3.15,.22-.31,.45-.63,.67-.94,1.47,.91,2.94,1.83,4.42,2.74Z"/>
      <path class="cls-29" d="M100.96,99.72c-.06-.84-.07-1.68-.2-2.51-.18-1.08-.46-2.15-.7-3.23,.8,1.12,1.8,2.15,2.32,3.38,.29,.69-.22,1.72-.36,2.59-.35-.07-.71-.15-1.06-.23Z"/>
      <path class="cls-21" d="M46.51,82.24c.03,.48,.06,.96,.09,1.44-.24,.06-.47,.12-.71,.18-.19-.48-.38-.97-.58-1.45,.4-.05,.8-.11,1.2-.17Z"/>
      <path class="cls-34" d="M54.88,74.71c.06,.48,.11,.96,.17,1.44-.7,.26-1.4,.53-2.11,.79,.65-.74,1.29-1.48,1.94-2.23Z"/>
      <path class="cls-29" d="M94.86,94.79c.34,.76,.67,1.53,1.01,2.29-.36-.02-.72-.03-1.07-.05,.02-.75,.04-1.49,.06-2.24Z"/>
      <path class="cls-34" d="M53.12,78.96c-1.38-.55-1.67-1.21-.18-2.01,.07,.66,.12,1.34,.18,2.01Z"/>
      <path class="cls-11" d="M129.97,109.09c-3.21,.61-3.78,3.76-5.45,5.8-4.28,5.22-9.19,6.37-14.65,3.17,.1-.6,.44-1.03,.94-1.35,.35-.14,.72-.18,1.1-.14,.53,.13,1.03,.35,1.53,.56,.33,.1,.66,.21,.99,.3,.51,.06,1.01,.03,1.51-.08,.33-.11,.67-.19,1.01-.27,.69-.19,1.32-.48,1.87-.96,.71-.66,1.26-1.42,1.64-2.31,.5-1.37,.23-3.02,1.5-4.1,.5,.99,.99,1.98,1.6,3.19,2.59-2.8,1.79-5.9,1.46-8.91,1.66,1.7,3.3,3.4,4.95,5.1Z"/>
      <path class="cls-41" d="M114.15,101.96c.28-.27,.55-.54,.83-.81,1.41,1.56,2.81,3.11,4.22,4.67-.18,.14-.36,.29-.54,.43-1.51-.13-2.27-1.03-2.52-2.34,.87,2.32,.25,4.39-1.75,5.97-1.18,.92-2.27,.85-2.8-.8-.76,.9-.96,2.62-2.82,1.89-.12-.47-.06-.91,.18-1.33,1.73-2.56,3.46-5.12,5.2-7.68Z"/>
      <path class="cls-41" d="M121.97,109.71l-.75,5.25c-1.45-.84-1.23-2.37-1.53-3.69-.12-.43-.22-.86-.34-1.28-.09-.2-.16-.41-.25-.62-.41-1.03-1.01-2.04-.34-3.18,.15-.12,.3-.25,.44-.38,.92,1.31,1.84,2.6,2.77,3.9Z"/>
      <path class="cls-63" d="M108.94,109.64c.04,.44,.09,.89,.13,1.33,1.06,.96,1.13,2.4,1.75,3.57,.32,.83,.85,1.65,.16,2.54-.37,.33-.74,.65-1.11,.98-1.63-1.69-3.26-3.37-4.9-5.06-.41-.99,.07-1.21,.94-1.08,.57,.32,1.13,.63,1.71,.95,.48-1.16,.9-2.19,1.32-3.23Z"/>
      <path class="cls-29" d="M105.91,111.92c-.31,.36-.63,.72-.94,1.08,.02-1.02,.05-2.04,.07-3.06,.29,.66,.58,1.32,.87,1.98Z"/>
      <path class="cls-3" d="M60.72,116.89c.65-4.07,1.3-8.14,2.01-12.62,8.21,6.52,18.86,5.95,28.47,10.23-1.59,.45-3.15,1.21-4.76,1.3-5.36,.3-10.61,.06-14.9-3.95-.9-.84-2.31-1.15-3.48-1.71-.99-.84-1.97-1.67-3.4-2.88-1.52,3.73-2.73,6.68-3.94,9.63Z"/>
      <path class="cls-29" d="M93.05,119.07c.66-.35,1.31-.7,1.97-1.05-.66,.35-1.32,.7-1.97,1.05Z"/>
      <path class="cls-29" d="M90.98,120.1c.69-.34,1.38-.69,2.07-1.03-.69,.34-1.38,.68-2.07,1.03Z"/>
      <path class="cls-52" d="M108.94,121.17c.73,.24,1.47,.48,2.2,.71-.73-.23-1.47-.47-2.2-.71Z"/>
      <path class="cls-29" d="M95.02,118.02c.35-.32,.7-.65,1.05-.97-.35,.32-.7,.64-1.05,.97Z"/>
      <path class="cls-17" d="M102.98,121.06c.36-.34,.72-.68,1.08-1.02-.36,.34-.72,.68-1.08,1.02Z"/>
      <path class="cls-22" d="M71.09,66.43c1.83,2.73,3.28,4.9,4.73,7.06-5.12,2.83-12.79,.9-16.47-3.82-.42-6.8,3.24-11.4,9.76-12.59,2.31-.42,4.53-1.32,6.75-2.45,5.39,1.43,11.89,2.11,11.99,10.52-1.23,1.53-2.67,3.33-4.26,5.31-2.67-2.43-5.28-4.82-8.14-7.43-1.52,1.18-2.62,2.05-4.36,3.4Z"/>
      <path class="cls-47" d="M56.98,73.07c-.35-.34-.71-.69-1.06-1.03,.35,.34,.71,.69,1.06,1.03Z"/>
      <path class="cls-26" d="M125.23,68.81c.47,.99,.93,1.98,1.66,3.53-2.56,.39-4.71,.72-7.93,1.21,.8-1.83,1.24-2.85,1.68-3.87,.39-.01,.76,.06,1.11,.21,1.01,.64,1.73,.04,2.43-.61,.3-.25,.65-.41,1.05-.47Z"/>
      <path class="cls-26" d="M121.63,67.66c.56-1.21,1.11-2.42,1.67-3.63,.36,.07,.73,.14,1.09,.21,.28,1.52,.56,3.05,.84,4.57-.18,.14-.36,.29-.55,.43-1.45-.12-.97-1.52-1.51-2.32,.26,.75-.08,1.13-.67,1.39-.48,.04-.77-.18-.87-.65Z"/>
      <path class="cls-26" d="M120.63,69.68c.33-.67,.67-1.34,1-2.02,.15,.14,.31,.28,.46,.41,.54,1.1,.42,1.88-1,2-.15-.13-.3-.26-.46-.39Z"/>
      <path class="cls-27" d="M47.82,93.73v9.32c-2.42-2.96-2.23-6.09,0-9.32Z"/>
      <path class="cls-7" d="M41.85,69.79c.04-.23,.13-.45,.25-.65,2.59-1.75,1.99,1.19,2.87,1.96,.25,.61,.51,1.22,.92,2.21-2,.64-3.89,1.24-6.53,2.08,.72-1.72,1.09-2.6,1.46-3.47,.86-.46,.65-1.43,1.03-2.13Z"/>
      <path class="cls-14" d="M44.97,71.1c-.96-.65-1.91-1.31-2.87-1.96,.48-1.11,.96-2.22,1.44-3.33,.37,.11,.74,.22,1.11,.32,.11,1.66,.21,3.32,.32,4.97Z"/>
      <path class="cls-14" d="M41.85,69.79c-.34,.71-.69,1.42-1.03,2.12,.34-.7,.68-1.41,1.03-2.12Z"/>
      <path class="cls-56" d="M24.41,61.85c-1.51,2.51-2.51,4.18-3.6,6-1.77-3.06-1.22-4.12,3.6-6Z"/>
      <path class="cls-29" d="M95.95,97.13c.31,.31,.62,.62,.93,.92-.32-.3-.62-.61-.93-.92Z"/>
      <path class="cls-29" d="M97.97,99.05c.36,.24,.71,.47,1.07,.71-.36-.24-.71-.48-1.07-.71Z"/>
      <path class="cls-29" d="M96.95,98.13c.34,.3,.67,.6,1.01,.91-.34-.31-.68-.61-1.01-.91Z"/>
      <path class="cls-9" d="M110.98,117.08c-.38-.69-.77-1.39-1.15-2.08,2.7-3.12,5.46-6.15,10.1-5.99l.06,.06c.38,.29,.65,.67,.8,1.13,.14,1.58,.28,3.17,.42,4.75-.74,.68-1.49,1.36-2.23,2.04-.53,.62-1.44,.39-2.02,.9-.26,.13-.54,.21-.83,.22-.77,.44-1.56,.39-2.36,.09-.28,.02-.54-.05-.77-.21-.35-.38-.72-.72-1.27-.77-.24-.08-.49-.13-.75-.14Z"/>
      <path class="cls-17" d="M116.97,117.89c.67-.3,1.34-.6,2.02-.9-.68,.31-1.35,.61-2.02,.9Z"/>
      <path class="cls-17" d="M113.78,118.2c.79-.03,1.57-.06,2.36-.09-.79,.03-1.57,.06-2.36,.09Z"/>
      <path class="cls-17" d="M111.74,117.22c.42,.26,.85,.51,1.27,.77-.42-.26-.85-.52-1.27-.77Z"/>
      <path class="cls-59" d="M119.93,109.01c-1.08,.6-2.19,1.18-3.25,1.82-2.29,1.37-4.57,2.78-6.85,4.18-.25-1.34-.51-2.69-.76-4.03,.72-.82,1.44-1.65,2.14-2.46,.73,.45,1.34,.84,2.04,1.27,.95-1.24,1.81-2.37,2.61-3.42-.25-1.05-.47-1.92-.84-3.48,1.6,1.41,2.66,2.36,3.73,3.3,.4,.94,.79,1.88,1.18,2.82Z"/>
      <path class="cls-59" d="M120.79,110.2c-.27-.38-.53-.75-.8-1.13,.27,.38,.54,.76,.8,1.13Z"/>
      <path class="cls-49" d="M68.53,65.61c.97,2.56,1.6,4.25,2.34,6.21-3.69,.59-6.36-.97-8.94-3.35,.99-4.51,3.15-7.55,7.96-8.37,2.59-.44,5.08-1.44,8.05-2.31,1.63,.7,3.59,1.55,5.96,2.57,.15,1.83,.29,3.6,.51,6.39-3.56-2.53-6.17-4.38-9.31-6.62-2.25,1.9-4.33,3.63-6.57,5.48Z"/>
      <path class="cls-39" d="M121.1,70.08c.33-.67,.66-1.33,1-2,.43-.48,.87-.96,1.28-1.41,.47,.93,.89,1.75,1.31,2.57,.09,2.25-1.25,2.74-3.58,2.58-.01-.59-.01-1.17-.01-1.74Z"/>
    </g>
  </g>
</svg>